<svg id="visual" viewBox="0 0 900 550" width="900" height="550" xmlns="http://www.w3.org/2000/svg" xmlns:xlink="http://www.w3.org/1999/xlink" version="1.1"><rect x="0" y="0" width="900" height="550" fill="#FFFFFF"></rect><defs><linearGradient id="grad1_0" x1="38.9%" y1="100%" x2="100%" y2="0%"><stop offset="17.272727272727273%" stop-color="#ffffff" stop-opacity="1"></stop><stop offset="82.72727272727272%" stop-color="#ffffff" stop-opacity="1"></stop></linearGradient></defs><defs><linearGradient id="grad2_0" x1="0%" y1="100%" x2="61.1%" y2="0%"><stop offset="17.272727272727273%" stop-color="#ffffff" stop-opacity="1"></stop><stop offset="82.72727272727272%" stop-color="#ffffff" stop-opacity="1"></stop></linearGradient></defs><g transform="translate(900, 550)"><path d="M-473 0C-451.6 -35 -430.2 -70.1 -426.9 -114.4C-423.7 -158.7 -438.5 -212.4 -411 -237.3C-383.6 -262.2 -314 -258.4 -272.9 -272.9C-231.9 -287.4 -219.4 -320.3 -195 -337.7C-170.6 -355.2 -134.1 -357.4 -99.6 -371.9C-65.1 -386.4 -32.6 -413.2 0 -440L0 0Z" fill="#001122"></path></g><g transform="translate(0, 0)"><path d="M419 0C434 41 449.1 82.1 439.5 117.8C429.9 153.5 395.8 183.8 371.5 214.5C347.3 245.2 332.9 276.2 314.7 314.7C296.5 353.1 274.5 399 237.3 411C200.2 423.1 147.9 401.2 105.9 395.1C63.8 388.9 31.9 398.5 0 408L0 0Z" fill="#001122"></path></g></svg>