<svg id="visual" viewBox="0 0 150 100" width="150" height="100" xmlns="http://www.w3.org/2000/svg" xmlns:xlink="http://www.w3.org/1999/xlink" version="1.1"><rect x="0" y="0" width="150" height="100" fill="#FFFFFF"></rect><defs><linearGradient id="grad1_0" x1="33.3%" y1="100%" x2="100%" y2="0%"><stop offset="20%" stop-color="#001122" stop-opacity="1"></stop><stop offset="80%" stop-color="#001122" stop-opacity="1"></stop></linearGradient></defs><defs><linearGradient id="grad1_1" x1="33.3%" y1="100%" x2="100%" y2="0%"><stop offset="20%" stop-color="#001122" stop-opacity="1"></stop><stop offset="80%" stop-color="#3a4452" stop-opacity="1"></stop></linearGradient></defs><defs><linearGradient id="grad1_2" x1="33.3%" y1="100%" x2="100%" y2="0%"><stop offset="20%" stop-color="#777d88" stop-opacity="1"></stop><stop offset="80%" stop-color="#3a4452" stop-opacity="1"></stop></linearGradient></defs><defs><linearGradient id="grad1_3" x1="33.3%" y1="100%" x2="100%" y2="0%"><stop offset="20%" stop-color="#777d88" stop-opacity="1"></stop><stop offset="80%" stop-color="#b9bcc2" stop-opacity="1"></stop></linearGradient></defs><defs><linearGradient id="grad1_4" x1="33.3%" y1="100%" x2="100%" y2="0%"><stop offset="20%" stop-color="#ffffff" stop-opacity="1"></stop><stop offset="80%" stop-color="#b9bcc2" stop-opacity="1"></stop></linearGradient></defs><defs><linearGradient id="grad2_0" x1="0%" y1="100%" x2="66.7%" y2="0%"><stop offset="20%" stop-color="#001122" stop-opacity="1"></stop><stop offset="80%" stop-color="#001122" stop-opacity="1"></stop></linearGradient></defs><defs><linearGradient id="grad2_1" x1="0%" y1="100%" x2="66.7%" y2="0%"><stop offset="20%" stop-color="#3a4452" stop-opacity="1"></stop><stop offset="80%" stop-color="#001122" stop-opacity="1"></stop></linearGradient></defs><defs><linearGradient id="grad2_2" x1="0%" y1="100%" x2="66.7%" y2="0%"><stop offset="20%" stop-color="#3a4452" stop-opacity="1"></stop><stop offset="80%" stop-color="#777d88" stop-opacity="1"></stop></linearGradient></defs><defs><linearGradient id="grad2_3" x1="0%" y1="100%" x2="66.7%" y2="0%"><stop offset="20%" stop-color="#b9bcc2" stop-opacity="1"></stop><stop offset="80%" stop-color="#777d88" stop-opacity="1"></stop></linearGradient></defs><defs><linearGradient id="grad2_4" x1="0%" y1="100%" x2="66.7%" y2="0%"><stop offset="20%" stop-color="#b9bcc2" stop-opacity="1"></stop><stop offset="80%" stop-color="#ffffff" stop-opacity="1"></stop></linearGradient></defs><g transform="translate(150, 100)"><path d="M-58.6 0C-54.9 -6.4 -51.2 -12.8 -49 -20.3C-46.7 -27.7 -46 -36.2 -41.4 -41.4C-36.9 -46.6 -28.6 -48.5 -21 -50.8C-13.5 -53.1 -6.8 -55.9 0 -58.6L0 0Z" fill="#dbdde0"></path><path d="M-46.9 0C-43.9 -5.1 -41 -10.3 -39.2 -16.2C-37.4 -22.2 -36.8 -29 -33.1 -33.1C-29.5 -37.3 -22.9 -38.8 -16.8 -40.7C-10.8 -42.5 -5.4 -44.7 0 -46.9L0 0Z" fill="#979ca4"></path><path d="M-35.2 0C-32.9 -3.8 -30.7 -7.7 -29.4 -12.2C-28 -16.6 -27.6 -21.7 -24.9 -24.9C-22.1 -28 -17.1 -29.1 -12.6 -30.5C-8.1 -31.9 -4.1 -33.5 0 -35.2L0 0Z" fill="#58606d"></path><path d="M-23.4 0C-22 -2.6 -20.5 -5.1 -19.6 -8.1C-18.7 -11.1 -18.4 -14.5 -16.6 -16.6C-14.8 -18.6 -11.4 -19.4 -8.4 -20.3C-5.4 -21.2 -2.7 -22.3 0 -23.4L0 0Z" fill="#1e2a39"></path><path d="M-11.7 0C-11 -1.3 -10.2 -2.6 -9.8 -4.1C-9.3 -5.5 -9.2 -7.2 -8.3 -8.3C-7.4 -9.3 -5.7 -9.7 -4.2 -10.2C-2.7 -10.6 -1.4 -11.2 0 -11.7L0 0Z" fill="#001122"></path></g><g transform="translate(0, 0)"><path d="M58.6 0C58.1 8 57.7 16 54.1 22.4C50.6 28.8 44 33.5 38.2 38.2C32.4 42.8 27.3 47.4 21 50.8C14.8 54.2 7.4 56.4 0 58.6L0 0Z" fill="#dbdde0"></path><path d="M46.9 0C46.5 6.4 46.1 12.8 43.3 17.9C40.5 23 35.2 26.8 30.5 30.5C25.9 34.3 21.8 37.9 16.8 40.7C11.8 43.4 5.9 45.1 0 46.9L0 0Z" fill="#979ca4"></path><path d="M35.2 0C34.9 4.8 34.6 9.6 32.5 13.5C30.4 17.3 26.4 20.1 22.9 22.9C19.4 25.7 16.4 28.5 12.6 30.5C8.9 32.5 4.4 33.8 0 35.2L0 0Z" fill="#58606d"></path><path d="M23.4 0C23.2 3.2 23.1 6.4 21.7 9C20.2 11.5 17.6 13.4 15.3 15.3C12.9 17.1 10.9 19 8.4 20.3C5.9 21.7 3 22.6 0 23.4L0 0Z" fill="#1e2a39"></path><path d="M11.7 0C11.6 1.6 11.5 3.2 10.8 4.5C10.1 5.8 8.8 6.7 7.6 7.6C6.5 8.6 5.5 9.5 4.2 10.2C3 10.8 1.5 11.3 0 11.7L0 0Z" fill="#001122"></path></g></svg>